<?xml version="1.0" encoding="utf-8"?>
<!-- Generator: Adobe Illustrator 27.5.0, SVG Export Plug-In . SVG Version: 6.00 Build 0)  -->
<svg version="1.1" xmlns="http://www.w3.org/2000/svg" xmlns:xlink="http://www.w3.org/1999/xlink" x="0px" y="0px"
	 viewBox="0 0 500 500" style="enable-background:new 0 0 500 500;" xml:space="preserve">
<g id="Background_Complete">
	<g>
		<rect y="382.398" style="fill:#EBEBEB;" width="500" height="0.25"/>
		<rect x="416.779" y="398.494" style="fill:#EBEBEB;" width="33.122" height="0.25"/>
		<rect x="322.527" y="401.208" style="fill:#EBEBEB;" width="8.693" height="0.25"/>
		<rect x="396.586" y="389.208" style="fill:#EBEBEB;" width="19.192" height="0.25"/>
		<rect x="52.459" y="390.888" style="fill:#EBEBEB;" width="43.193" height="0.25"/>
		<rect x="104.556" y="390.888" style="fill:#EBEBEB;" width="6.333" height="0.25"/>
		<rect x="131.471" y="395.111" style="fill:#EBEBEB;" width="93.676" height="0.25"/>
		<path style="fill:#EBEBEB;" d="M237.014,337.8H43.915c-3.147,0-5.708-2.561-5.708-5.708V60.66c0-3.147,2.561-5.708,5.708-5.708
			h193.099c3.146,0,5.707,2.561,5.707,5.708v271.432C242.721,335.239,240.16,337.8,237.014,337.8z M43.915,55.203
			c-3.01,0-5.458,2.448-5.458,5.458v271.432c0,3.01,2.448,5.458,5.458,5.458h193.099c3.009,0,5.457-2.448,5.457-5.458V60.66
			c0-3.009-2.448-5.458-5.457-5.458H43.915z"/>
		<path style="fill:#EBEBEB;" d="M453.31,337.8H260.212c-3.147,0-5.707-2.561-5.707-5.708V60.66c0-3.147,2.561-5.708,5.707-5.708
			H453.31c3.148,0,5.708,2.561,5.708,5.708v271.432C459.019,335.239,456.458,337.8,453.31,337.8z M260.212,55.203
			c-3.009,0-5.457,2.448-5.457,5.458v271.432c0,3.01,2.448,5.458,5.457,5.458H453.31c3.01,0,5.458-2.448,5.458-5.458V60.66
			c0-3.009-2.448-5.458-5.458-5.458H260.212z"/>
	</g>
	<g>
		<g>
			<path style="fill:#F0F0F0;" d="M146.408,115.65c0-6.259-5.074-11.333-11.333-11.333c-1.132,0-2.223,0.171-3.254,0.48
				c0.165-1.136,0.254-2.298,0.254-3.48c0-13.255-10.745-24-24-24c-1.511,0-2.987,0.146-4.421,0.413
				c-3.689-6.037-10.32-10.08-17.912-10.08c-11.492,0-20.814,9.233-20.984,20.684c-0.118-0.002-0.232-0.018-0.349-0.018
				c-10.677,0-19.333,8.656-19.333,19.333c0,10.678,8.656,19.333,19.333,19.333h71l-0.014-0.016
				C141.504,126.797,146.408,121.802,146.408,115.65z"/>
			<polygon style="fill:#E0E0E0;" points="104.752,132.611 104.752,110.517 86.73,110.517 86.73,132.611 72.056,132.611 
				95.741,152.624 119.426,132.611 			"/>
		</g>
		<g>
			<path style="fill:#F0F0F0;" d="M418.285,109.678c0-3.24-2.627-5.867-5.867-5.867c-0.586,0-1.151,0.089-1.685,0.248
				c0.086-0.588,0.132-1.189,0.132-1.801c0-6.861-5.562-12.424-12.424-12.424c-0.782,0-1.546,0.076-2.289,0.214
				c-1.909-3.125-5.342-5.218-9.272-5.218c-5.949,0-10.774,4.78-10.862,10.707c-0.061-0.001-0.12-0.009-0.181-0.009
				c-5.527,0-10.008,4.481-10.008,10.008c0,5.527,4.481,10.008,10.008,10.008h36.753l-0.008-0.008
				C415.746,115.448,418.285,112.862,418.285,109.678z"/>
			<polygon style="fill:#E0E0E0;" points="387.393,110.133 387.393,121.57 396.722,121.57 396.722,110.133 404.318,110.133 
				392.057,99.773 379.797,110.133 			"/>
		</g>
		<g>
			
				<rect x="51.099" y="186.034" transform="matrix(0.9764 -0.2158 0.2158 0.9764 -45.0919 25.812)" style="fill:#FAFAFA;" width="89.107" height="66.714"/>
			
				<rect x="55.619" y="190.327" transform="matrix(0.9764 -0.2158 0.2158 0.9764 -45.0596 25.8277)" style="fill:#E0E0E0;enable-background:new    ;" width="80.243" height="57.85"/>
			<polygon style="fill:#EBEBEB;" points="139.461,231.152 141.16,238.837 62.807,256.154 56.738,228.695 69.775,210.971 
				98.951,229.077 109.601,217.006 			"/>
			<g>
				<path style="fill:#EBEBEB;" d="M118.918,200.103c0.77,3.484-1.43,6.933-4.914,7.702c-3.484,0.77-6.932-1.43-7.702-4.914
					c-0.77-3.484,1.43-6.933,4.914-7.703C114.699,194.419,118.148,196.619,118.918,200.103z"/>
				<path style="opacity:0.3;fill:#EBEBEB;" d="M118.918,200.103c0.77,3.484-1.43,6.933-4.914,7.702
					c-3.484,0.77-6.932-1.43-7.702-4.914c-0.77-3.484,1.43-6.933,4.914-7.703C114.699,194.419,118.148,196.619,118.918,200.103z"/>
			</g>
		</g>
		<g>
			<g>
				
					<rect x="90.223" y="304.914" transform="matrix(0.963 0.2697 -0.2697 0.963 96.3649 -19.1711)" style="fill:#EBEBEB;" width="55.462" height="72.428"/>
				<g>
					
						<rect x="104.969" y="316.079" transform="matrix(0.9629 0.2697 -0.2697 0.9629 90.3783 -21.7707)" style="fill:#E0E0E0;" width="38.905" height="3.915"/>
					
						<rect x="103.121" y="322.677" transform="matrix(0.9629 0.2697 -0.2697 0.9629 92.089 -21.0279)" style="fill:#E0E0E0;" width="38.905" height="3.915"/>
					
						<rect x="101.273" y="329.274" transform="matrix(0.9629 0.2697 -0.2697 0.9629 93.7997 -20.2853)" style="fill:#E0E0E0;" width="38.905" height="3.915"/>
					
						<rect x="99.426" y="335.871" transform="matrix(0.9629 0.2697 -0.2697 0.9629 95.5107 -19.5425)" style="fill:#E0E0E0;" width="38.905" height="3.915"/>
					
						<rect x="97.578" y="342.469" transform="matrix(0.9629 0.2697 -0.2697 0.9629 97.2215 -18.7998)" style="fill:#E0E0E0;" width="38.905" height="3.915"/>
					
						<rect x="95.73" y="349.066" transform="matrix(0.9629 0.2697 -0.2697 0.9629 98.9319 -18.0571)" style="fill:#E0E0E0;" width="38.905" height="3.915"/>
					
						<rect x="93.883" y="355.664" transform="matrix(0.9629 0.2697 -0.2697 0.9629 100.6427 -17.3144)" style="fill:#E0E0E0;" width="38.905" height="3.915"/>
					
						<rect x="92.289" y="360.412" transform="matrix(0.9629 0.2697 -0.2697 0.9629 101.612 -14.8599)" style="fill:#E0E0E0;" width="25.194" height="3.915"/>
				</g>
			</g>
			<g>
				
					<rect x="77.154" y="276.704" transform="matrix(0.963 0.2697 -0.2697 0.963 88.2732 -16.6917)" style="fill:#FAFAFA;" width="55.462" height="72.428"/>
				<g>
					
						<rect x="91.899" y="287.87" transform="matrix(0.9629 0.2697 -0.2697 0.9629 82.2866 -19.2913)" style="fill:#E0E0E0;" width="38.905" height="3.915"/>
					
						<rect x="90.051" y="294.467" transform="matrix(0.9629 0.2697 -0.2697 0.9629 83.9974 -18.5485)" style="fill:#E0E0E0;" width="38.905" height="3.915"/>
					
						<rect x="88.204" y="301.064" transform="matrix(0.9629 0.2697 -0.2697 0.9629 85.7079 -17.8058)" style="fill:#E0E0E0;" width="38.905" height="3.915"/>
					
						<rect x="86.356" y="307.662" transform="matrix(0.9629 0.2697 -0.2697 0.9629 87.4189 -17.0631)" style="fill:#E0E0E0;" width="38.905" height="3.915"/>
					
						<rect x="84.508" y="314.259" transform="matrix(0.9629 0.2697 -0.2697 0.9629 89.1296 -16.3204)" style="fill:#E0E0E0;" width="38.905" height="3.915"/>
					
						<rect x="82.661" y="320.857" transform="matrix(0.9629 0.2697 -0.2697 0.9629 90.8401 -15.5777)" style="fill:#E0E0E0;" width="38.905" height="3.915"/>
					
						<rect x="80.813" y="327.454" transform="matrix(0.9629 0.2697 -0.2697 0.9629 92.5509 -14.8349)" style="fill:#E0E0E0;" width="38.905" height="3.915"/>
					
						<rect x="79.219" y="332.203" transform="matrix(0.9629 0.2697 -0.2697 0.9629 93.5187 -12.3805)" style="fill:#E0E0E0;" width="25.194" height="3.915"/>
				</g>
			</g>
		</g>
		<g>
			<g>
				<path style="fill:#E0E0E0;" d="M443.232,180.467c-5.723-4.448-13.354-19.072-13.344-19.138l-7.481,51.52
					c0.169-1.166-4.397-2.544-7.448-2.987c-7.387-1.073-13.772,2.144-14.499,7.15c-0.727,5.006,4.769,9.948,12.157,11.02
					c7.387,1.073,13.702-2.154,14.429-7.16c0.109-0.753-0.454-1.577-0.353-2.276l5.764-39.695c0,0,3.891,5.325,10.631,8.787
					c5.483,2.816,7.265,10.648,7.265,10.648S452.073,187.338,443.232,180.467z"/>
			</g>
			<g>
				<path style="fill:#E0E0E0;" d="M387.053,205.405c-3.947-3.067-9.209-13.153-9.203-13.198l-5.159,35.53
					c0.117-0.804-3.032-1.754-5.137-2.06c-5.094-0.74-9.497,1.478-9.999,4.93c-0.501,3.452,3.289,6.86,8.384,7.6
					c5.094,0.74,9.449-1.486,9.951-4.938c0.075-0.519-0.313-1.087-0.243-1.57l3.975-27.374c0,0,2.683,3.672,7.332,6.059
					c3.781,1.942,5.01,7.343,5.01,7.343S393.151,210.143,387.053,205.405z"/>
			</g>
		</g>
		<g>
			<path style="fill:#E0E0E0;" d="M385.167,307.539l-2.744-2.16c-1.004-0.791-2.321-1.06-3.51-0.717l-13.798,3.974
				c-1.189,0.342-2.091,1.251-2.406,2.421l-0.859,3.198c-0.314,1.171-1.217,2.079-2.406,2.422l-8.234,2.372
				c-1.963,0.565-2.999,2.602-2.315,4.548l15.939,45.312c0.685,1.947,2.831,3.066,4.794,2.5l65.258-18.797
				c1.963-0.565,3-2.602,2.315-4.548l-15.939-45.312c-0.685-1.946-2.831-3.066-4.794-2.501l-27.793,8.006
				C387.488,308.599,386.171,308.329,385.167,307.539z"/>
			<path style="fill:#E6E6E6;" d="M424.256,302.763l-59.786,17.221c-2.492,0.718-4.116,3.356-3.627,5.893l7.9,40.939
				c0.49,2.537,2.907,4.011,5.4,3.293l59.786-17.221c2.493-0.718,4.116-3.356,3.627-5.893l-7.9-40.939
				C429.167,303.519,426.749,302.045,424.256,302.763z"/>
		</g>
	</g>
</g>
<g id="Backgorund_Simple" style="display:none;">
	<g style="display:inline;">
		<path style="fill:#407BFF;" d="M108.508,108.073c0.836-0.519,1.687-1.02,2.554-1.501c20.396-11.337,46.205-10.016,67.514-0.505
			s38.595,26.345,52.767,44.883c14.173,18.538,25.632,38.973,38.485,58.449c5.004,7.582,10.447,15.241,18.199,19.978
			c17.969,10.982,40.837,2.942,61.735,0.342c13.729-1.708,28.158-0.767,40.564,5.357c43.75,21.597,19.784,78.928-8.01,103.111
			c-20.375,17.728-46.722,27.392-73.322,32.069c-56.589,9.95-117.507-2.27-163.639-36.522
			c-46.132-34.253-75.862-90.892-74.045-148.321C72.254,155.622,83.39,123.663,108.508,108.073z"/>
		<path style="opacity:0.9;fill:#FFFFFF;enable-background:new    ;" d="M108.508,108.073c0.836-0.519,1.687-1.02,2.554-1.501
			c20.396-11.337,46.205-10.016,67.514-0.505s38.595,26.345,52.767,44.883c14.173,18.538,25.632,38.973,38.485,58.449
			c5.004,7.582,10.447,15.241,18.199,19.978c17.969,10.982,40.837,2.942,61.735,0.342c13.729-1.708,28.158-0.767,40.564,5.357
			c43.75,21.597,19.784,78.928-8.01,103.111c-20.375,17.728-46.722,27.392-73.322,32.069c-56.589,9.95-117.507-2.27-163.639-36.522
			c-46.132-34.253-75.862-90.892-74.045-148.321C72.254,155.622,83.39,123.663,108.508,108.073z"/>
	</g>
</g>
<g id="Shadow_1_">
	<ellipse id="_x3C_Path_x3E__359_" style="fill:#F5F5F5;" cx="250" cy="416.238" rx="193.889" ry="11.323"/>
</g>
<g id="Gears">
	<g>
		<g>
			<path style="fill:#407BFF;" d="M450.057,239.002c0,56.851-42.962,103.102-95.769,103.102c-52.808,0-95.77-46.251-95.77-103.102
				c0-56.85,42.962-103.101,95.77-103.101c32.571,0,62.487,17.498,80.265,46.858l-7.044,4.709l18.374,5.657l3.133-20.035
				l-6.57,4.393c-19.486-32.315-52.36-51.581-88.158-51.581c-57.93,0-105.059,50.737-105.059,113.101
				c0,62.364,47.129,113.102,105.059,113.102c57.929,0,105.058-50.737,105.058-113.102H450.057z"/>
			<path style="opacity:0.7;fill:#FFFFFF;" d="M450.057,239.002c0,56.851-42.962,103.102-95.769,103.102
				c-52.808,0-95.77-46.251-95.77-103.102c0-56.85,42.962-103.101,95.77-103.101c32.571,0,62.487,17.498,80.265,46.858l-7.044,4.709
				l18.374,5.657l3.133-20.035l-6.57,4.393c-19.486-32.315-52.36-51.581-88.158-51.581c-57.93,0-105.059,50.737-105.059,113.101
				c0,62.364,47.129,113.102,105.059,113.102c57.929,0,105.058-50.737,105.058-113.102H450.057z"/>
		</g>
		<g>
			<g>
				<g>
					<path style="fill:#407BFF;" d="M368.436,217.644v-13.594l-6.502-0.659c-0.878-4.556-2.555-8.793-4.849-12.556l4.176-5.43
						l-8.929-9.613l-5.045,4.496c-3.495-2.469-7.43-4.275-11.662-5.22l-0.612-7h-12.627l-0.612,7
						c-4.233,0.945-8.168,2.751-11.663,5.22l-5.045-4.496l-8.928,9.613l4.176,5.43c-2.293,3.763-3.971,7.999-4.849,12.556
						l-6.501,0.659v13.594l6.501,0.659c0.878,4.556,2.556,8.793,4.849,12.556l-4.176,5.431l8.928,9.611l5.044-4.496
						c3.496,2.469,7.431,4.275,11.664,5.22l0.612,6.999h12.627l0.612-6.999c4.233-0.945,8.168-2.751,11.663-5.22l5.044,4.496
						l8.929-9.611l-4.176-5.431c2.294-3.763,3.972-7.999,4.849-12.556L368.436,217.644z M328.699,229.249
						c-9.441,0-17.094-8.239-17.094-18.402s7.653-18.402,17.094-18.402c9.44,0,17.093,8.239,17.093,18.402
						S338.14,229.249,328.699,229.249z"/>
					<path style="fill:#407BFF;" d="M419.612,256.014v-10.652l-5.094-0.516c-0.688-3.571-2.003-6.89-3.8-9.839l3.272-4.255
						l-6.996-7.533l-3.953,3.523c-2.738-1.935-5.822-3.35-9.139-4.091l-0.48-5.484h-9.894l-0.48,5.484
						c-3.317,0.741-6.401,2.156-9.139,4.091l-3.953-3.523l-6.997,7.533l3.273,4.255c-1.797,2.949-3.112,6.269-3.8,9.839
						l-5.095,0.516v10.652l5.095,0.517c0.688,3.571,2.003,6.89,3.8,9.839l-3.273,4.255l6.997,7.533l3.953-3.523
						c2.739,1.934,5.822,3.35,9.139,4.09l0.48,5.484h9.894l0.48-5.484c3.317-0.741,6.401-2.156,9.14-4.09l3.953,3.523l6.996-7.533
						l-3.272-4.255c1.797-2.949,3.112-6.268,3.8-9.839L419.612,256.014z M388.474,265.108c-7.398,0-13.395-6.456-13.395-14.42
						c0-7.965,5.997-14.421,13.395-14.421c7.398,0,13.395,6.456,13.395,14.421C401.869,258.652,395.872,265.108,388.474,265.108z"/>
					<path style="fill:#407BFF;" d="M368.436,286.255v-8.947l-4.28-0.434c-0.577-2.999-1.681-5.787-3.191-8.264l2.749-3.574
						l-5.877-6.327l-3.32,2.959c-2.301-1.625-4.891-2.814-7.677-3.435l-0.403-4.607h-8.31l-0.403,4.607
						c-2.786,0.622-5.376,1.811-7.677,3.436l-3.32-2.959l-5.877,6.327l2.749,3.574c-1.509,2.477-2.613,5.265-3.191,8.264
						l-4.28,0.434l0,8.947l4.279,0.433c0.578,2.999,1.683,5.788,3.192,8.264l-2.749,3.574l5.877,6.327l3.32-2.959
						c2.3,1.625,4.891,2.814,7.677,3.436l0.403,4.606h8.31l0.403-4.606c2.786-0.623,5.376-1.811,7.677-3.436l3.32,2.959l5.877-6.327
						l-2.749-3.574c1.51-2.476,2.614-5.265,3.192-8.264L368.436,286.255z M342.282,293.893c-6.214,0-11.251-5.422-11.251-12.112
						c0-6.689,5.037-12.112,11.251-12.112c6.213,0,11.251,5.423,11.251,12.112C353.533,288.471,348.495,293.893,342.282,293.893z"/>
				</g>
			</g>
			<g>
				<path style="opacity:0.7;fill:#FFFFFF;" d="M368.436,217.644v-13.594l-6.502-0.659c-0.878-4.556-2.555-8.793-4.849-12.556
					l4.176-5.43l-8.929-9.613l-5.045,4.496c-3.495-2.469-7.43-4.275-11.662-5.22l-0.612-7h-12.627l-0.612,7
					c-4.233,0.945-8.168,2.751-11.663,5.22l-5.045-4.496l-8.928,9.613l4.176,5.43c-2.293,3.763-3.971,7.999-4.849,12.556
					l-6.501,0.659v13.594l6.501,0.659c0.878,4.556,2.556,8.793,4.849,12.556l-4.176,5.431l8.928,9.611l5.044-4.496
					c3.496,2.469,7.431,4.275,11.664,5.22l0.612,6.999h12.627l0.612-6.999c4.233-0.945,8.168-2.751,11.663-5.22l5.044,4.496
					l8.929-9.611l-4.176-5.431c2.294-3.763,3.972-7.999,4.849-12.556L368.436,217.644z M328.699,229.249
					c-9.441,0-17.094-8.239-17.094-18.402s7.653-18.402,17.094-18.402c9.44,0,17.093,8.239,17.093,18.402
					S338.14,229.249,328.699,229.249z"/>
				<path style="opacity:0.5;fill:#FFFFFF;" d="M419.612,256.014v-10.652l-5.094-0.516c-0.688-3.571-2.003-6.89-3.8-9.839
					l3.272-4.255l-6.996-7.533l-3.953,3.523c-2.738-1.935-5.822-3.35-9.139-4.091l-0.48-5.484h-9.894l-0.48,5.484
					c-3.317,0.741-6.401,2.156-9.139,4.091l-3.953-3.523l-6.997,7.533l3.273,4.255c-1.797,2.949-3.112,6.269-3.8,9.839l-5.095,0.516
					v10.652l5.095,0.517c0.688,3.571,2.003,6.89,3.8,9.839l-3.273,4.255l6.997,7.533l3.953-3.523c2.739,1.934,5.822,3.35,9.139,4.09
					l0.48,5.484h9.894l0.48-5.484c3.317-0.741,6.401-2.156,9.14-4.09l3.953,3.523l6.996-7.533l-3.272-4.255
					c1.797-2.949,3.112-6.268,3.8-9.839L419.612,256.014z M388.474,265.108c-7.398,0-13.395-6.456-13.395-14.42
					c0-7.965,5.997-14.421,13.395-14.421c7.398,0,13.395,6.456,13.395,14.421C401.869,258.652,395.872,265.108,388.474,265.108z"/>
				<path style="opacity:0.3;fill:#FFFFFF;" d="M368.436,286.255v-8.947l-4.28-0.434c-0.577-2.999-1.681-5.787-3.191-8.264
					l2.749-3.574l-5.877-6.327l-3.32,2.959c-2.301-1.625-4.891-2.814-7.677-3.435l-0.403-4.607h-8.31l-0.403,4.607
					c-2.786,0.622-5.376,1.811-7.677,3.436l-3.32-2.959l-5.877,6.327l2.749,3.574c-1.509,2.477-2.613,5.265-3.191,8.264l-4.28,0.434
					l0,8.947l4.279,0.433c0.578,2.999,1.683,5.788,3.192,8.264l-2.749,3.574l5.877,6.327l3.32-2.959
					c2.3,1.625,4.891,2.814,7.677,3.436l0.403,4.606h8.31l0.403-4.606c2.786-0.623,5.376-1.811,7.677-3.436l3.32,2.959l5.877-6.327
					l-2.749-3.574c1.51-2.476,2.614-5.265,3.192-8.264L368.436,286.255z M342.282,293.893c-6.214,0-11.251-5.422-11.251-12.112
					c0-6.689,5.037-12.112,11.251-12.112c6.213,0,11.251,5.423,11.251,12.112C353.533,288.471,348.495,293.893,342.282,293.893z"/>
			</g>
		</g>
	</g>
</g>
<g id="Screen">
	<g>
		<path style="opacity:0.1;enable-background:new    ;" d="M351.81,87.275v303.111c0,2.493-2.004,4.43-4.497,4.43H206.247
			c-1.122,0-2.109-0.422-2.819-1.131c-0.748-0.729-1.199-1.764-1.199-2.934V86.91c0-1.985,1.457-3.72,3.442-3.72h40.061
			c1.131,0,2.157,0.738,2.579,1.803l1.659,4.085c0.422,1.055,1.448,1.783,2.579,1.783h49.026c1.132,0,2.158-0.7,2.579-1.755
			l1.659-4.104c0.422-1.064,1.448-1.812,2.579-1.812h39.485C350.065,83.19,351.81,85.088,351.81,87.275z"/>
		<g>
			<path style="fill:#407BFF;" d="M327.909,94.863v287.952c0,2.368-1.904,4.208-4.272,4.208H189.627
				c-1.066,0-2.004-0.401-2.678-1.075c-0.71-0.692-1.139-1.676-1.139-2.787V94.517c0-1.885,1.384-3.534,3.27-3.534h38.057
				c1.075,0,2.049,0.701,2.45,1.712l1.576,3.88c0.401,1.002,1.375,1.694,2.45,1.694h46.574c1.075,0,2.049-0.665,2.45-1.667
				l1.576-3.898c0.401-1.011,1.375-1.722,2.45-1.722h37.511C326.251,90.983,327.909,92.786,327.909,94.863z"/>
			<g>
				<g>
					
						<rect x="203.477" y="99.943" transform="matrix(-1 -1.224647e-16 1.224647e-16 -1 408.9335 202.5258)" style="opacity:0.6;fill:#FFFFFF;enable-background:new    ;" width="1.98" height="2.64"/>
					
						<rect x="200.249" y="99.062" transform="matrix(-1 -1.224647e-16 1.224647e-16 -1 402.4791 201.6452)" style="opacity:0.6;fill:#FFFFFF;enable-background:new    ;" width="1.98" height="3.521"/>
					
						<rect x="197.022" y="98.182" transform="matrix(-1 -1.224647e-16 1.224647e-16 -1 396.0247 200.7645)" style="opacity:0.6;fill:#FFFFFF;enable-background:new    ;" width="1.98" height="4.401"/>
					
						<rect x="193.795" y="97.301" transform="matrix(-1 -1.224647e-16 1.224647e-16 -1 389.5703 199.8838)" style="opacity:0.6;fill:#FFFFFF;enable-background:new    ;" width="1.98" height="5.282"/>
				</g>
				<g>
					<rect x="308.591" y="98.98" style="opacity:0.6;fill:#FFFFFF;enable-background:new    ;" width="1.174" height="2.64"/>
					
						<rect x="310.572" y="98.016" transform="matrix(-1 -1.224647e-16 1.224647e-16 -1 630.4949 200.599)" style="opacity:0.6;fill:#FFFFFF;enable-background:new    ;" width="9.351" height="4.567"/>
				</g>
			</g>
			<g>
				<path style="opacity:0.3;enable-background:new    ;" d="M211.796,250.54h90.125c2.809,0,5.087,2.277,5.087,5.087v0
					c0,2.809-2.277,5.086-5.087,5.086h-90.125c-2.809,0-5.087-2.277-5.087-5.086v0C206.71,252.817,208.987,250.54,211.796,250.54z"
					/>
				<path style="fill:#407BFF;" d="M260.932,251.451c2.302,0,4.175,1.873,4.175,4.176c0,2.303-1.873,4.176-4.175,4.176h-49.135
					c-2.303,0-4.176-1.873-4.176-4.176c0-2.302,1.873-4.176,4.176-4.176H260.932z"/>
				<path style="opacity:0.3;fill:#FFFFFF;enable-background:new    ;" d="M260.932,251.451c2.302,0,4.175,1.873,4.175,4.176
					c0,2.303-1.873,4.176-4.175,4.176h-49.135c-2.303,0-4.176-1.873-4.176-4.176c0-2.302,1.873-4.176,4.176-4.176H260.932z"/>
			</g>
			<g>
				<path style="fill:#FFFFFF;" d="M244.674,247.232l-1.159-6.485h1.025l0.814,5.056l0.82-5.056h1.026l-1.18,6.485H244.674z"/>
				<path style="fill:#FFFFFF;" d="M248.017,247.232v-6.49h2.784v0.983h-1.806v1.77h1.32v0.983h-1.32v1.769h1.806v0.983H248.017z"/>
				<path style="fill:#FFFFFF;" d="M253.017,240.747c0.545,0,0.945,0.15,1.201,0.45c0.224,0.263,0.336,0.629,0.336,1.098v0.942
					c0,0.459-0.174,0.847-0.523,1.164l0.725,2.831h-1.058l-0.593-2.442c-0.028,0-0.057,0-0.088,0h-0.564v2.442h-0.978v-6.485
					H253.017z M253.602,242.311c0-0.376-0.186-0.564-0.559-0.564h-0.59v2.075h0.59c0.155,0,0.287-0.055,0.396-0.165
					c0.109-0.11,0.163-0.243,0.163-0.398V242.311z"/>
				<path style="fill:#FFFFFF;" d="M255.429,246.26h0.978v0.978h-0.978V246.26z"/>
				<path style="fill:#FFFFFF;" d="M257.768,242.574c0-0.614,0.165-1.083,0.496-1.408c0.287-0.286,0.663-0.429,1.129-0.429
					c0.428,0,0.792,0.16,1.095,0.481c0.302,0.32,0.453,0.695,0.453,1.123c0,0.441-0.098,0.867-0.295,1.278
					c-0.107,0.228-0.357,0.619-0.751,1.175c-0.107,0.151-0.266,0.388-0.476,0.709l-0.176,0.264c-0.114,0.173-0.2,0.309-0.259,0.409
					c-0.028,0.051-0.042,0.082-0.042,0.093h1.92v0.958h-3.11v-0.897c0-0.02,0.071-0.14,0.213-0.357
					c0.066-0.101,0.141-0.211,0.224-0.331l0.254-0.367c0.149-0.203,0.382-0.529,0.7-0.977c0.301-0.421,0.525-0.802,0.674-1.144
					c0.121-0.279,0.181-0.539,0.181-0.781c0-0.196-0.055-0.363-0.165-0.502c-0.121-0.145-0.276-0.217-0.466-0.217
					c-0.272,0-0.466,0.157-0.58,0.471c-0.038,0.104-0.057,0.228-0.057,0.373v0.248h-0.962V242.574z"/>
				<path style="fill:#FFFFFF;" d="M261.613,246.26h0.978v0.978h-0.978V246.26z"/>
				<path style="fill:#FFFFFF;" d="M266.364,245.752c0,0.432-0.152,0.797-0.456,1.098c-0.304,0.3-0.667,0.45-1.092,0.45
					c-0.432,0-0.798-0.151-1.1-0.453c-0.302-0.302-0.453-0.667-0.453-1.095v-3.54c0-0.431,0.152-0.798,0.456-1.1
					c0.303-0.302,0.669-0.453,1.097-0.453c0.431,0,0.797,0.152,1.097,0.456c0.3,0.304,0.45,0.669,0.45,1.097V245.752z
					 M265.35,242.191c0-0.155-0.056-0.288-0.166-0.398c-0.11-0.11-0.243-0.166-0.398-0.166c-0.155,0-0.287,0.056-0.396,0.166
					c-0.108,0.11-0.163,0.243-0.163,0.398v3.545c0,0.155,0.055,0.288,0.163,0.398c0.109,0.111,0.241,0.166,0.396,0.166
					c0.155,0,0.288-0.055,0.398-0.166c0.11-0.11,0.166-0.243,0.166-0.398V242.191z"/>
				<path style="fill:#FFFFFF;" d="M268.253,241.721v1.392c0.097-0.138,0.233-0.244,0.41-0.32c0.093-0.038,0.203-0.057,0.327-0.057
					c0.429,0,0.746,0.149,0.95,0.45c0.176,0.259,0.265,0.624,0.265,1.097v1.398c0,0.479-0.152,0.873-0.456,1.18
					c-0.29,0.297-0.656,0.445-1.097,0.445c-0.428,0-0.783-0.155-1.066-0.466c-0.272-0.297-0.409-0.659-0.409-1.087v-0.155
					l0.937-0.072l0.021,0.223c0.024,0.259,0.129,0.432,0.315,0.518c0.055,0.027,0.114,0.041,0.176,0.041c0.4,0,0.6-0.208,0.6-0.626
					v-1.589c0-0.189-0.069-0.347-0.208-0.471c-0.066-0.059-0.158-0.088-0.276-0.088c-0.173,0-0.302,0.067-0.385,0.201
					c-0.069,0.118-0.104,0.242-0.104,0.373v0.176h-0.978v-3.545h2.862v0.983H268.253z"/>
			</g>
			<g>
				<path style="fill:#FFFFFF;" d="M238.072,181.115c-0.874,0-1.615-0.304-2.223-0.913c-0.608-0.608-0.913-1.346-0.913-2.213
					v-10.162h1.94v10.141c0,0.315,0.112,0.582,0.336,0.802c0.224,0.22,0.493,0.331,0.808,0.331c0.314,0,0.582-0.11,0.802-0.331
					c0.22-0.22,0.33-0.487,0.33-0.802v-10.141h2.066v10.162c0,0.881-0.308,1.622-0.923,2.224
					C239.68,180.814,238.939,181.115,238.072,181.115z"/>
				<path style="fill:#FFFFFF;" d="M246.105,167.827c0.965,0,1.734,0.304,2.308,0.913c0.531,0.581,0.797,1.321,0.797,2.223v1.909
					c0,0.867-0.303,1.608-0.907,2.223c-0.605,0.616-1.337,0.923-2.197,0.923h-1.143v4.95h-1.982v-13.141H246.105z M247.29,170.995
					c0-0.343-0.103-0.619-0.309-0.829c-0.207-0.21-0.481-0.314-0.823-0.314h-1.196v4.205h1.196c0.314,0,0.582-0.112,0.802-0.335
					c0.22-0.224,0.33-0.493,0.33-0.808V170.995z"/>
				<path style="fill:#FFFFFF;" d="M257.022,177.822c0,0.867-0.304,1.608-0.913,2.223c-0.608,0.615-1.342,0.923-2.202,0.923h-3.115
					v-13.151h3.115c0.867,0,1.603,0.308,2.208,0.923c0.604,0.615,0.907,1.353,0.907,2.213V177.822z M252.774,179.007h1.196
					c0.314,0,0.58-0.114,0.797-0.341c0.217-0.227,0.325-0.495,0.325-0.802v-6.88c0-0.314-0.11-0.583-0.331-0.808
					c-0.22-0.224-0.484-0.335-0.792-0.335h-1.196V179.007z"/>
				<path style="fill:#FFFFFF;" d="M260.93,177.947l-0.481,3.021h-2.064l2.234-13.141h2.727l2.202,13.141h-2.084l-0.464-3.021
					H260.93z M261.971,170.837l-0.734,5.181h1.468L261.971,170.837z"/>
				<path style="fill:#FFFFFF;" d="M267.466,169.82h-2.108v-1.993h6.188v1.993h-2.098v11.148h-1.982V169.82z"/>
				<path style="fill:#FFFFFF;" d="M273.14,180.968v-13.151h5.642v1.993h-3.66v3.586h2.674v1.993h-2.674v3.586h3.66v1.993H273.14z"
					/>
			</g>
			<path style="opacity:0.2;enable-background:new    ;" d="M272.491,284.56h-31.265c-2.283,0-4.134-1.851-4.134-4.134v-6.72
				c0-2.283,1.851-4.134,4.134-4.134h31.265c2.283,0,4.134,1.851,4.134,4.134v6.72C276.626,282.709,274.775,284.56,272.491,284.56z"
				/>
			<g>
				<path style="fill:#FFFFFF;" d="M247.274,279.934c-0.432,0-0.798-0.151-1.1-0.453c-0.302-0.302-0.453-0.667-0.453-1.095v-3.54
					c0-0.431,0.152-0.798,0.456-1.1c0.303-0.302,0.669-0.453,1.097-0.453c0.431,0,0.797,0.152,1.097,0.456
					c0.3,0.304,0.45,0.669,0.45,1.097v0.74h-1.014v-0.761c0-0.155-0.056-0.288-0.166-0.398c-0.11-0.11-0.243-0.166-0.398-0.166
					c-0.155,0-0.287,0.056-0.396,0.166c-0.108,0.11-0.163,0.243-0.163,0.398v3.551c0,0.155,0.055,0.287,0.163,0.396
					c0.109,0.108,0.241,0.163,0.396,0.163c0.155,0,0.288-0.055,0.398-0.163c0.11-0.108,0.166-0.24,0.166-0.396v-0.896h1.014v0.905
					c0,0.432-0.152,0.797-0.456,1.098C248.063,279.783,247.699,279.934,247.274,279.934z"/>
				<path style="fill:#FFFFFF;" d="M250.637,278.36l-0.238,1.49h-1.018l1.102-6.485h1.346l1.086,6.485h-1.028l-0.229-1.49H250.637z
					 M251.151,274.851l-0.362,2.558h0.725L251.151,274.851z"/>
				<path style="fill:#FFFFFF;" d="M254.836,273.36l1.298,4.362v-4.362h0.978v6.49h-1.051l-1.346-4.156v4.156h-0.978v-6.49H254.836z
					"/>
				<path style="fill:#FFFFFF;" d="M259.524,279.934c-0.432,0-0.798-0.151-1.1-0.453c-0.302-0.302-0.453-0.667-0.453-1.095v-3.54
					c0-0.431,0.152-0.798,0.455-1.1c0.303-0.302,0.67-0.453,1.097-0.453c0.431,0,0.797,0.152,1.097,0.456
					c0.3,0.304,0.45,0.669,0.45,1.097v0.74h-1.014v-0.761c0-0.155-0.056-0.288-0.166-0.398c-0.11-0.11-0.243-0.166-0.398-0.166
					c-0.155,0-0.287,0.056-0.396,0.166c-0.108,0.11-0.163,0.243-0.163,0.398v3.551c0,0.155,0.055,0.287,0.163,0.396
					c0.109,0.108,0.241,0.163,0.396,0.163c0.155,0,0.288-0.055,0.398-0.163c0.11-0.108,0.166-0.24,0.166-0.396v-0.896h1.014v0.905
					c0,0.432-0.152,0.797-0.456,1.098C260.313,279.783,259.949,279.934,259.524,279.934z"/>
				<path style="fill:#FFFFFF;" d="M261.874,279.851v-6.49h2.784v0.983h-1.806v1.77h1.32v0.983h-1.32v1.77h1.806v0.983H261.874z"/>
				<path style="fill:#FFFFFF;" d="M267.997,279.851h-2.666v-6.485h0.978v5.513h1.688V279.851z"/>
			</g>
			<g style="opacity:0.3;enable-background:new    ;">
				<path style="fill:#FFFFFF;" d="M292.61,340.88h-71.501c-0.699,0-1.266-0.567-1.266-1.266l0,0c0-0.699,0.567-1.266,1.266-1.266
					h71.501c0.699,0,1.266,0.567,1.266,1.266l0,0C293.875,340.314,293.309,340.88,292.61,340.88z"/>
				<path style="fill:#FFFFFF;" d="M301.719,348.476h-89.719c-0.699,0-1.266-0.567-1.266-1.266l0,0c0-0.699,0.567-1.266,1.266-1.266
					h89.719c0.699,0,1.266,0.567,1.266,1.266l0,0C302.984,347.91,302.418,348.476,301.719,348.476z"/>
				<path style="fill:#FFFFFF;" d="M283.501,356.072h-53.284c-0.699,0-1.266-0.567-1.266-1.266l0,0c0-0.699,0.567-1.266,1.266-1.266
					h53.284c0.699,0,1.266,0.567,1.266,1.266l0,0C284.767,355.506,284.2,356.072,283.501,356.072z"/>
				<path style="fill:#FFFFFF;" d="M301.719,371.265h-89.719c-0.699,0-1.266-0.567-1.266-1.266l0,0c0-0.699,0.567-1.266,1.266-1.266
					h89.719c0.699,0,1.266,0.567,1.266,1.266l0,0C302.984,370.698,302.418,371.265,301.719,371.265z"/>
			</g>
			<g style="opacity:0.1;enable-background:new    ;">
				<path style="fill:#FFFFFF;" d="M249.736,98.27L208.828,251.5v0.009l-0.456,1.722v0.009l-0.738,2.76v0.009l-0.464,1.722
					l-21.36,80.013v-96.837l40.025-149.924h1.303c1.075,0,2.049,0.701,2.45,1.712l1.576,3.88c0.401,1.002,1.375,1.694,2.45,1.694
					H249.736z"/>
				<polygon style="fill:#FFFFFF;" points="327.909,176.525 327.909,273.362 302.395,368.933 301.776,371.255 297.568,387.023 
					271.716,387.023 275.925,371.265 276.599,368.732 279.978,356.071 280.652,353.539 282.009,348.474 282.684,345.942 
					284.032,340.877 284.706,338.345 305.975,258.687 305.975,258.678 306.959,254.998 306.959,254.989 				"/>
				<path style="fill:#FFFFFF;" d="M263.746,98.27l-40.653,152.274l-0.246,0.911l-2.222,8.344l-0.246,0.911l-33.43,125.239
					c-0.71-0.692-1.139-1.676-1.139-2.787v-14.729l28.757-107.722l0.246-0.911l2.223-8.344l0.246-0.911L257.935,98.27H263.746z"/>
			</g>
		</g>
	</g>
</g>
<g id="Plant">
	<g>
		<g>
			<path style="fill:#407BFF;" d="M403.01,356.813c-1.601-2.636-4.237-0.344-4.237-0.344c0.376-5.051-4.271-8.506-4.271-8.506
				s5.4,0,6.153-5.152c0.753-5.152-1.883-2.756-4.356-2.791c-2.473-0.035-5.058,7.19-1.797,11.254
				c3.262,4.064,2.387,11-5.144,17.671c-1.837,1.627-3.086,3.794-3.931,6.138c0.568-6.129,0.889-14.764-0.914-20.529
				c-3.063-9.791,2.774-12.427,4.469-17.323c1.695-4.896-4.469-9.038-4.469-9.038s5.787-2.636,2.962-5.649
				c-2.824-3.013-8.662-2.603-8.662,1.335c0,3.937,3.954,5.444,3.954,5.444s4.519,4.707,4.519,7.155c0,2.448-4.519,7.72-4.519,7.72
				s2.071-4.512-2.071-4.704c-4.142-0.192-5.461,5.269-3.766,7.716c1.695,2.448,4.519,0.376,4.519,0.376s0.329,5.272,1.294,8.473
				c0.424,1.408,0.225,6.931-0.131,12.677c-0.835-2.075-2.014-3.976-3.668-5.441c-7.532-6.671-8.405-13.607-5.144-17.671
				c3.261-4.064,0.676-11.289-1.797-11.254c-2.473,0.035-5.109-2.361-4.356,2.791c0.753,5.152,6.153,5.152,6.153,5.152
				s-4.647,3.455-4.27,8.506c0,0-2.636-2.292-4.237,0.344c-2.857,4.707,3.766,7.626,4.879,5.309c0,0,14.045,9.942,10.655,24.252
				l0.787,1.162c-0.101,1.155-0.165,1.851-0.165,1.851l1.098-0.473l1.25,1.845c-0.065,3.577,0.32,6.221,0.32,6.221l3.358-4.957
				c-3.389-14.31,10.655-24.252,10.655-24.252C399.244,364.439,405.868,361.519,403.01,356.813z"/>
			<path style="opacity:0.2;fill:#407BFF;enable-background:new    ;" d="M403.01,356.813c-1.601-2.636-4.237-0.344-4.237-0.344
				c0.376-5.051-4.271-8.506-4.271-8.506s5.4,0,6.153-5.152c0.753-5.152-1.883-2.756-4.356-2.791
				c-2.473-0.035-5.058,7.19-1.797,11.254c3.262,4.064,2.387,11-5.144,17.671c-1.837,1.627-3.086,3.794-3.931,6.138
				c0.568-6.129,0.889-14.764-0.914-20.529c-3.063-9.791,2.774-12.427,4.469-17.323c1.695-4.896-4.469-9.038-4.469-9.038
				s5.787-2.636,2.962-5.649c-2.824-3.013-8.662-2.603-8.662,1.335c0,3.937,3.954,5.444,3.954,5.444s4.519,4.707,4.519,7.155
				c0,2.448-4.519,7.72-4.519,7.72s2.071-4.512-2.071-4.704c-4.142-0.192-5.461,5.269-3.766,7.716
				c1.695,2.448,4.519,0.376,4.519,0.376s0.329,5.272,1.294,8.473c0.424,1.408,0.225,6.931-0.131,12.677
				c-0.835-2.075-2.014-3.976-3.668-5.441c-7.532-6.671-8.405-13.607-5.144-17.671c3.261-4.064,0.676-11.289-1.797-11.254
				c-2.473,0.035-5.109-2.361-4.356,2.791c0.753,5.152,6.153,5.152,6.153,5.152s-4.647,3.455-4.27,8.506
				c0,0-2.636-2.292-4.237,0.344c-2.857,4.707,3.766,7.626,4.879,5.309c0,0,14.045,9.942,10.655,24.252l0.787,1.162
				c-0.101,1.155-0.165,1.851-0.165,1.851l1.098-0.473l1.25,1.845c-0.065,3.577,0.32,6.221,0.32,6.221l3.358-4.957
				c-3.389-14.31,10.655-24.252,10.655-24.252C399.244,364.439,405.868,361.519,403.01,356.813z"/>
		</g>
		<g style="opacity:0.3;enable-background:new    ;">
			<path d="M403.01,356.813c-1.601-2.636-4.237-0.344-4.237-0.344c0.376-5.051-4.271-8.506-4.271-8.506s5.4,0,6.153-5.152
				c0.753-5.152-1.883-2.756-4.356-2.791c-2.473-0.035-5.058,7.19-1.797,11.254c3.262,4.064,2.387,11-5.144,17.671
				c-1.837,1.627-3.086,3.794-3.931,6.138c0.568-6.129,0.889-14.764-0.914-20.529c-3.063-9.791,2.774-12.427,4.469-17.323
				c1.695-4.896-4.469-9.038-4.469-9.038s5.787-2.636,2.962-5.649c-2.824-3.013-8.662-2.603-8.662,1.335
				c0,3.937,3.954,5.444,3.954,5.444s4.519,4.707,4.519,7.155c0,2.448-4.519,7.72-4.519,7.72s2.071-4.512-2.071-4.704
				c-4.142-0.192-5.461,5.269-3.766,7.716c1.695,2.448,4.519,0.376,4.519,0.376s0.329,5.272,1.294,8.473
				c0.424,1.408,0.225,6.931-0.131,12.677c-0.835-2.075-2.014-3.976-3.668-5.441c-7.532-6.671-8.405-13.607-5.144-17.671
				c3.261-4.064,0.676-11.289-1.797-11.254c-2.473,0.035-5.109-2.361-4.356,2.791c0.753,5.152,6.153,5.152,6.153,5.152
				s-4.647,3.455-4.27,8.506c0,0-2.636-2.292-4.237,0.344c-2.857,4.707,3.766,7.626,4.879,5.309c0,0,14.045,9.942,10.655,24.252
				l0.787,1.162c-0.101,1.155-0.165,1.851-0.165,1.851l1.098-0.473l1.25,1.845c-0.065,3.577,0.32,6.221,0.32,6.221l3.358-4.957
				c-3.389-14.31,10.655-24.252,10.655-24.252C399.244,364.439,405.868,361.519,403.01,356.813z"/>
			<path style="opacity:0.2;enable-background:new    ;" d="M403.01,356.813c-1.601-2.636-4.237-0.344-4.237-0.344
				c0.376-5.051-4.271-8.506-4.271-8.506s5.4,0,6.153-5.152c0.753-5.152-1.883-2.756-4.356-2.791
				c-2.473-0.035-5.058,7.19-1.797,11.254c3.262,4.064,2.387,11-5.144,17.671c-1.837,1.627-3.086,3.794-3.931,6.138
				c0.568-6.129,0.889-14.764-0.914-20.529c-3.063-9.791,2.774-12.427,4.469-17.323c1.695-4.896-4.469-9.038-4.469-9.038
				s5.787-2.636,2.962-5.649c-2.824-3.013-8.662-2.603-8.662,1.335c0,3.937,3.954,5.444,3.954,5.444s4.519,4.707,4.519,7.155
				c0,2.448-4.519,7.72-4.519,7.72s2.071-4.512-2.071-4.704c-4.142-0.192-5.461,5.269-3.766,7.716
				c1.695,2.448,4.519,0.376,4.519,0.376s0.329,5.272,1.294,8.473c0.424,1.408,0.225,6.931-0.131,12.677
				c-0.835-2.075-2.014-3.976-3.668-5.441c-7.532-6.671-8.405-13.607-5.144-17.671c3.261-4.064,0.676-11.289-1.797-11.254
				c-2.473,0.035-5.109-2.361-4.356,2.791c0.753,5.152,6.153,5.152,6.153,5.152s-4.647,3.455-4.27,8.506
				c0,0-2.636-2.292-4.237,0.344c-2.857,4.707,3.766,7.626,4.879,5.309c0,0,14.045,9.942,10.655,24.252l0.787,1.162
				c-0.101,1.155-0.165,1.851-0.165,1.851l1.098-0.473l1.25,1.845c-0.065,3.577,0.32,6.221,0.32,6.221l3.358-4.957
				c-3.389-14.31,10.655-24.252,10.655-24.252C399.244,364.439,405.868,361.519,403.01,356.813z"/>
		</g>
		<polygon style="fill:#407BFF;" points="400.263,417.856 368.092,417.856 364.622,382.634 403.734,382.634 		"/>
		<polygon style="opacity:0.3;fill:#FFFFFF;enable-background:new    ;" points="400.263,417.856 368.092,417.856 364.622,382.634 
			403.734,382.634 		"/>
		<rect x="362.904" y="378.747" style="fill:#407BFF;" width="42.547" height="7.772"/>
		<rect x="362.904" y="378.747" style="opacity:0.5;fill:#FFFFFF;enable-background:new    ;" width="42.547" height="7.772"/>
	</g>
</g>
<g id="Character">
	<g>
		<g>
			<path style="fill:#407BFF;" d="M157.888,179.843c3.791,0.173,19.683,21.513,19.683,21.513l5.901-7.672
				c0,0,9.099,17.677,4.599,26.091c-4.5,8.414-28.22-14.586-28.22-14.586L157.888,179.843z"/>
			<path style="opacity:0.6;fill:#FFFFFF;enable-background:new    ;" d="M157.885,179.846l1.565,17.02l0.4,8.32
				c0,0,3.9,3.78,8.83,7.71c7.24,5.78,16.71,11.88,19.39,6.88c4.5-8.41-4.6-26.09-4.6-26.09l-5.9,7.67l-0.04-0.06
				C176.631,200.006,161.555,180.006,157.885,179.846z"/>
		</g>
		<path style="opacity:0.2;enable-background:new    ;" d="M159.451,196.866l0.4,8.32c0,0,3.9,3.78,8.83,7.71
			c0.47-9.99-8.83-24.54-8.83-24.54L159.451,196.866z"/>
		<path style="opacity:0.2;enable-background:new    ;" d="M177.571,201.356l-0.849,1.625l2.474,9.625c0,0-6.822-6.208-2.474-12.292
			L177.571,201.356z"/>
		<g>
			<path style="fill:#407BFF;" d="M158.571,233.201l-32,2.472c0,0-0.435-19.118-2.985-29.068c-0.83-3.22-1.87-6.84-3.19-11.04
				c-0.56-1.78-1.17-3.66-1.84-5.67c-0.61-1.87-1.28-3.86-2.01-5.95c4.38-1.4,8.84-2.47,13.38-3.23c4.78-0.85,9.62-1.36,14.48-1.53
				c6.27-0.05,13.48,0.66,13.48,0.66s1.02,0.25,1.67,6.89C160.145,192.986,159.871,210.491,158.571,233.201z"/>
			<path style="opacity:0.6;fill:#FFFFFF;enable-background:new    ;" d="M158.57,233.2l-32,2.47c0,0-0.01-0.39-0.03-1.1
				c-0.14-4.19-0.77-19.44-2.95-27.96c-0.59-2.3-1.29-4.81-2.13-7.58c-0.33-1.11-0.68-2.26-1.06-3.46
				c-0.56-1.78-1.17-3.66-1.84-5.67c-0.61-1.87-1.28-3.86-2.01-5.95c4.38-1.4,8.84-2.47,13.38-3.23c4.78-0.85,9.62-1.36,14.48-1.53
				c6.27-0.05,13.48,0.66,13.48,0.66s1.02,0.25,1.67,6.89C160.15,192.99,159.87,210.49,158.57,233.2z"/>
		</g>
		<path style="fill:#EEC1BB;" d="M118.401,395.096l4.83,2.84c0,0,2.34-3.33,7.34-8.7v-0.01c1.4-1.48,2.87-3.12,4.4-4.88
			c3.06-3.51,6.37-7.52,9.84-11.83c1.02-1.27,2.06-2.57,3.11-3.89c12.09-15.21,25.16-33.09,30.05-45.18
			c1.52-3.76,2.26-6.95,1.93-9.34c-0.99-7.22-3.8-18.09-7.01-28.59c-4.88-16.05-10.37-31.26-10.37-31.26l-13.49,22.85
			c0,0,4.14,9.87,7.91,20.38c3.71,10.32,7.06,21.27,5.82,24.12c-0.12,0.28-0.27,0.61-0.44,0.96c-2.24,4.64-8.44,15.15-15.48,26.76
			c-0.71,1.17-1.43,2.35-2.15,3.53c-3.78,6.2-7.71,12.57-11.35,18.42c-1.42,2.3-2.8,4.52-4.11,6.62
			C123.031,387.866,118.401,395.096,118.401,395.096z"/>
		<path style="opacity:0.2;enable-background:new    ;" d="M148.196,368.626c-6.38,8.02-12.51,15.3-17.07,20.6
			c-0.65-3.26-1.31-7.12-1.83-11.33c5.27-8.46,11.72-18.9,17.58-28.57C146.825,354.446,147.015,362.016,148.196,368.626z"/>
		<path style="fill:#EEC1BB;" d="M124.121,302.506c1.67,11.39,4.05,21.71,5.6,27.86c0.93,3.69,1.56,5.87,1.56,5.87
			c-0.09,11.49,0.83,23.8,2.06,35.04c0.51,4.58,1.06,8.98,1.63,13.07c2.1,15.14,4.31,26.01,4.31,26.01l5.75-0.75l-0.22-37.09
			l-0.12-19.66l-0.16-26.75l-0.06-4.66l-0.28-20.34l-0.41-30l-20-9C121.101,273.506,122.101,288.786,124.121,302.506z"/>
		<path style="opacity:0.2;enable-background:new    ;" d="M173.01,285.93l-17.4,7.91c-3.35-9.04-6.58-16.73-6.58-16.73l13.49-22.85
			c0,0,5.49,15.21,10.37,31.26C172.93,285.66,172.97,285.79,173.01,285.93z"/>
		<path style="opacity:0.2;enable-background:new    ;" d="M144.13,296.64l-20.62,1.33c-1.58-12.47-2.12-25.7,0.27-35.86l20,9
			L144.13,296.64z"/>
		<path style="fill:#263238;" d="M118.844,391.942c0.589-0.428,5.568,7.031,5.568,7.031s-1.109,7.776,1.138,12.791
			c2.247,5.015-2.118,4.587-5.747-0.164c-3.629-4.751-6.398-8.377-8.976-11.753C108.248,396.471,112.736,396.385,118.844,391.942z"
			/>
		<g>
			<path style="fill:#407BFF;" d="M126.101,404.602c-1.131-0.265-1.865-3.489-2.001-4.133c-0.007-0.031-0.007-0.063-0.001-0.094l0,0
				l0.001-0.001c0.005-0.025,0.013-0.049,0.026-0.071h0.001l0,0c0.013-0.023,0.029-0.043,0.049-0.06h0
				c0.001,0.002,0.001-0.001,0.001-0.001h0.001l0.001-0.001l0,0c0.024-0.021,0.052-0.036,0.082-0.046
				c0.104-0.033,2.208-0.697,3.344-0.04c0.362,0.209,0.59,0.525,0.678,0.939c0.094,0.442,0.013,0.753-0.241,0.924
				c-0.391,0.263-1.152,0.043-1.902-0.299c0.517,0.556,0.972,1.185,1.043,1.728c0.038,0.288-0.026,0.54-0.191,0.747
				c-0.265,0.335-0.524,0.426-0.729,0.426C126.203,404.621,126.149,404.614,126.101,404.602z M126.209,404.143
				c0.046,0.01,0.186,0.045,0.412-0.241c0.083-0.105,0.114-0.234,0.093-0.393c-0.097-0.738-1.211-1.819-1.997-2.48
				C125.074,402.415,125.677,404.018,126.209,404.143z M124.908,400.512c1.204,0.748,2.533,1.343,2.868,1.115
				c0.104-0.07,0.072-0.302,0.043-0.434c-0.06-0.282-0.208-0.488-0.452-0.63c-0.292-0.169-0.68-0.228-1.079-0.228
				C125.789,400.336,125.273,400.428,124.908,400.512z"/>
		</g>
		<path style="fill:#263238;" d="M137.246,406.686c0.017-0.728,8.968-0.157,8.968-0.157s5.506,5.601,10.855,6.859
			c5.349,1.259,2.36,4.468-3.618,4.468c-5.978,0-10.541,0-14.789,0C134.414,417.856,137.069,414.237,137.246,406.686z"/>
		<g>
			<path style="fill:#407BFF;" d="M147.213,407.685c-0.029-0.013-0.054-0.033-0.074-0.055l-0.001-0.001l0,0
				c-0.017-0.019-0.031-0.041-0.041-0.065l0,0l0-0.001c-0.01-0.023-0.016-0.048-0.017-0.073l0,0l0-0.001c0,0,0,0,0-0.001l0,0
				c-0.002-0.033,0.003-0.066,0.014-0.095c0.038-0.107,0.789-2.179,1.997-2.682c0.385-0.16,0.775-0.148,1.158,0.032
				c0.408,0.194,0.606,0.446,0.589,0.753c-0.027,0.47-0.665,0.943-1.392,1.331c0.755-0.073,1.532-0.052,2.007,0.219
				c0.252,0.145,0.413,0.349,0.478,0.606c0.135,0.53-0.043,0.812-0.216,0.954c-0.186,0.153-0.463,0.215-0.79,0.215
				C149.672,408.819,147.684,407.909,147.213,407.685z M148.032,407.535c1.32,0.559,2.958,1.052,3.381,0.705
				c0.037-0.03,0.148-0.122,0.059-0.473c-0.033-0.131-0.117-0.233-0.256-0.313c-0.248-0.142-0.626-0.196-1.055-0.196
				C149.471,407.258,148.65,407.397,148.032,407.535z M149.271,405.146c-0.702,0.291-1.255,1.309-1.535,1.923
				c1.325-0.504,2.605-1.199,2.628-1.602c0.007-0.125-0.197-0.241-0.32-0.298c-0.138-0.066-0.275-0.099-0.412-0.099
				C149.513,405.07,149.393,405.095,149.271,405.146z"/>
		</g>
		<path style="fill:#EEC1BB;" d="M141.745,186.316c-7.95-1.02-10.34-4.42-10.34-4.42c3.25-3.06,2.66-7.58,1.83-10.4
			c-0.45-1.56-0.98-2.6-0.98-2.6l9.57,1.79c-0.25,1.58-0.36,2.91-0.37,4.03c-0.02,1.23,0.09,2.2,0.27,2.96
			c0.65,2.86,2.28,2.9,2.28,2.9C145.685,183.716,141.745,186.316,141.745,186.316z"/>
		<path style="opacity:0.2;enable-background:new    ;" d="M141.455,174.716c-0.02,1.23,0.09,2.2,0.27,2.96
			c-3.8-0.5-6.68-3.54-8.49-6.18c-0.45-1.56-0.98-2.6-0.98-2.6l9.57,1.79C141.575,172.266,141.465,173.596,141.455,174.716z"/>
		<g>
			<path style="fill:#263238;" d="M133.218,138.604c-13.537,1.088-21.512,36.294-2.361,32.934
				c5.637-0.989,29.037-18.91,20.065-25.718C141.951,139.012,133.218,138.604,133.218,138.604z"/>
			<path style="fill:#EEC1BB;" d="M143.125,145.262c8.242,1.19,10.258,5.986,9.635,14.567c-0.779,10.723-4.221,17.925-14.199,14.169
				C125.009,168.898,129.437,143.285,143.125,145.262z"/>
			<path style="fill:#D4827D;" d="M147.498,158.599c0,0,0.831,2.318,1.905,3.765c0,0-0.867,1.019-2.307,0.618L147.498,158.599z"/>
			<g>
				<path style="fill:#263238;" d="M142.551,157.196c-0.082,0.679-0.515,1.186-0.968,1.131c-0.453-0.055-0.754-0.65-0.672-1.329
					c0.082-0.679,0.516-1.186,0.968-1.131C142.332,155.922,142.633,156.517,142.551,157.196z"/>
				<path style="fill:#263238;" d="M141.686,155.877l1.548-0.401C143.234,155.476,142.348,156.631,141.686,155.877z"/>
			</g>
			<g>
				<path style="fill:#263238;" d="M151.013,158.074c-0.082,0.679-0.516,1.186-0.968,1.131c-0.453-0.055-0.754-0.65-0.672-1.329
					c0.082-0.68,0.516-1.186,0.968-1.131C150.794,156.799,151.095,157.395,151.013,158.074z"/>
				<path style="fill:#263238;" d="M150.149,156.755l1.547-0.401C151.696,156.354,150.811,157.508,150.149,156.755z"/>
			</g>
			
				<path style="fill:none;stroke:#263238;stroke-width:0.708;stroke-linecap:round;stroke-linejoin:round;stroke-miterlimit:10;" d="
				M143.29,151.493c0,0-2.272-0.636-3.755,0.73"/>
			
				<path style="fill:none;stroke:#263238;stroke-width:0.708;stroke-linecap:round;stroke-linejoin:round;stroke-miterlimit:10;" d="
				M149.331,152.01c0,0,1.534-0.329,3.187,1.152"/>
			<path style="fill:#263238;" d="M132.111,157.852c0,0,4.832-6.215,5.003-11.527c0,0,17.297-4.313,15.708,12.381
				c0,0,3.722-14.49-10.399-16.865c-14.099-2.371-17.055,18.362-10.63,25.595C131.794,167.437,129.115,161.743,132.111,157.852z"/>
			<path style="fill:#EEC1BB;" d="M133.206,159.787c0.137-1.335-0.908-3.779-3.415-3.866c-2.594-0.09-4.569,4.977,1.602,7.156
				C132.278,163.389,132.921,162.572,133.206,159.787z"/>
			
				<path style="fill:none;stroke:#263238;stroke-width:0.708;stroke-linecap:round;stroke-linejoin:round;stroke-miterlimit:10;" d="
				M145.346,167.289c0,0-3.567,0.29-4.557-3.001"/>
			<path style="fill:#263238;" d="M133.218,138.604c0,0,12.083-1.582,19.647,5.736c7.564,7.319-14.667,6.132-14.667,6.132
				l5.628-2.571c0,0-7.047,2.003-10.101,0.989L133.218,138.604z"/>
			<path style="fill:#263238;" d="M124.231,160.079c0,0-3.659,6.415,0,11.954c0,0-2.855,6.033,3.072,10.286
				c0,0-1.086,3.363,4.102,7.418c0,0,1.628,5.298,0.342,9.078l3.758-1.858c0,0-0.026-4.747-2.288-7.516c0,0,1.208-7.525-1.812-9.993
				c0,0,1.358-4.743,0.85-6.82c0,0-1.505-8.942-1.748-9.911C130.507,162.716,125.418,162.07,124.231,160.079z"/>
			
				<path style="fill:none;stroke:#263238;stroke-width:0.4885;stroke-linecap:round;stroke-linejoin:round;stroke-miterlimit:10;" d="
				M151.696,143.846c0,0,3.788,2.077,3.194,4.846c-0.593,2.769-9.544,3.286-9.544,3.286"/>
		</g>
		<g>
			<path style="fill:#263238;" d="M163.676,193.937c-0.058,0.507,0.312,0.918,0.826,0.918h9.14c0.514,0,0.977-0.411,1.035-0.918
				l2.041-18.038c0.058-0.507-0.312-1.043-0.826-1.043h-9.14c-0.514,0-0.977,0.536-1.035,1.043L163.676,193.937z"/>
			<path style="opacity:0.5;fill:#FFFFFF;" d="M166.73,175.781l-2.068,18.213c-0.059,0.514,0.209,0.862,0.719,0.862h7.75
				c0.52,0,1.473-0.286,1.531-0.8l2.068-18.275c0.059-0.514-0.829-0.925-1.349-0.925h-7.75
				C167.121,174.856,166.788,175.267,166.73,175.781z"/>
		</g>
		<path style="opacity:0.6;fill:#FFFFFF;enable-background:new    ;" d="M145.946,237.293c0,0.894,0.725,1.62,1.619,1.62
			c0.894,0,1.619-0.725,1.619-1.62c0-0.894-0.725-1.619-1.619-1.619C146.671,235.673,145.946,236.398,145.946,237.293z"/>
		<path style="fill:#EEC1BB;" d="M182.821,195.439l-4.764-8.083c0,0,0.014-4.25-0.403-5.25c-0.417-1-5.083-3.257-6-2.92
			c-0.917,0.337-1.25,8.674-0.417,9.797c0.833,1.123,3.75,2.373,3.75,2.373l-0.199,1.583l2.783,8.417L182.821,195.439z"/>
		<polygon style="fill:#407BFF;" points="184.738,194.522 183.154,192.939 175.654,201.356 176.722,204.689 		"/>
		<path style="fill:#263238;" d="M175.43,283.11l-24.57,8.73l-0.82-2.25l-1.01-2.77l-0.42,4l-0.32,3.07h-29.83
			c0,0-0.09-0.86-0.18-2.4c-0.29-4.8-0.66-16.24,1.2-29.38c1.12-7.94,3.06-16.51,6.32-24.6c0.25-0.62,0.51-1.23,0.77-1.84l32-2.47
			l0.27,1.54l2.01,11.49l3.82,9.66l9.43,23.85L175.43,283.11z"/>
		<path style="opacity:0.2;enable-background:new    ;" d="M146.74,207.97c0,0-8.82,20.09-20.2,26.6
			c-0.14-4.19-0.77-19.44-2.95-27.96c-0.59-2.3-1.29-4.81-2.13-7.58l3.47-4.17c0,0,2.4,7.44,1.34,13.9l13.27-8.13L146.74,207.97z"/>
		<path style="fill:#EEC1BB;" d="M138.202,203.352l10.829-8.496c0,0,1.639-4.559,2.299-5.35c0.659-0.791,10.154-4.295,10.945-4.389
			s0.048,7.779-1.187,9.118c-1.235,1.339-8.835,3.978-8.835,3.978l-11.339,10.678L138.202,203.352z"/>
		<g>
			<path style="fill:#407BFF;" d="M116.545,183.946c-6.359,3.186-9.187,39.102,1.856,45.304
				c11.043,6.202,27.545-21.821,27.545-21.821l-6.41-6.803c0,0-13.444,11.255-15.067,10.221c-1.623-1.034,0.223-12.033,0.223-12.033
				s1.89-3.329-2.088-8.56C118.626,185.022,116.545,183.946,116.545,183.946z"/>
			<path style="opacity:0.6;fill:#FFFFFF;enable-background:new    ;" d="M116.545,183.946c-6.359,3.186-9.187,39.102,1.856,45.304
				c11.043,6.202,27.545-21.821,27.545-21.821l-6.41-6.803c0,0-13.444,11.255-15.067,10.221c-1.623-1.034,0.223-12.033,0.223-12.033
				s1.89-3.329-2.088-8.56C118.626,185.022,116.545,183.946,116.545,183.946z"/>
		</g>
		<polygon style="fill:#407BFF;" points="146.071,209.922 147.99,208.769 140.788,198.212 138.144,199.686 		"/>
		<path style="opacity:0.2;" d="M133.59,238.58c0,0-3.63,20.04-14.11,23.53c1.12-7.94,3.06-16.51,6.32-24.6L133.59,238.58z"/>
		<path style="opacity:0.2;" d="M164.67,255.89c-8.39-4.09-8.25-20.22-8.25-20.22l2.42-0.93l2.01,11.49L164.67,255.89z"/>
		<path style="opacity:0.2;" d="M148.61,290.82l-0.32,3.07h-29.83c0,0-0.09-0.86-0.18-2.4L148.61,290.82z"/>
		<polygon style="opacity:0.2;" points="175.43,283.11 150.86,291.84 150.04,289.59 174.1,279.74 		"/>
		<path style="opacity:0.2;" d="M149.031,286.824l0.639-8.176l6.753-13.253c0,0,2.127,7.646-1.235,14.455
			C151.824,286.659,149.031,286.824,149.031,286.824z"/>
		<polygon style="opacity:0.5;enable-background:new    ;" points="126.571,235.673 125.222,239.003 159.287,237.293 
			158.571,233.201 		"/>
		<path style="fill:#407BFF;" d="M144.554,234.434l0.398,3.741c0.044,0.41,0.406,0.711,0.817,0.678l4.987-0.397
			c0.424-0.034,0.738-0.408,0.697-0.831l-0.351-3.687c-0.039-0.41-0.398-0.715-0.809-0.687l-5.034,0.343
			C144.829,233.624,144.509,234.005,144.554,234.434z"/>
		<polygon style="fill:#263238;" points="136.198,234.885 135.802,239.286 134.566,239.286 134.764,234.885 		"/>
		<polygon style="fill:#263238;" points="154.148,233.543 154.643,238.148 155.78,238.148 155.385,233.352 		"/>
	</g>
</g>
</svg>
